<svg version="1" xmlns="http://www.w3.org/2000/svg" width="800" height="800" viewBox="0 0 600.000000 600.000000"><path d="M489.5 150.7c-5.1 1.3-10.2 4.4-11.8 7.3-2.4 4-2.8 10.5-1.1 14.9 1.4 3.3 7.1 11.7 10.7 15.6 1 1.1 4.5 6 7.8 11 3.3 4.9 6.3 9.5 6.9 10.2 5.1 6.3 36.2 82.5 46.5 113.8 7.9 24 12.3 42.3 16 65.5.3 1.9.8 9.5 1.2 16.7.6 13 .6 13.3-2 17.1-3.6 5.5-8.6 7.7-17.1 7.4-20.5-.6-42.9-12.5-65.1-34.7-15.4-15.4-27.4-32.6-37.6-54.1l-5.8-12.1-6.5-.6c-3.7-.4-7.3-.4-8.1 0-.9.3-2.7 2.5-4.2 5-2.3 4-2.5 5.2-2 11.6.3 4 1.4 9.7 2.4 12.7 3.7 10.6.5 39.8-4.8 44.6-1.7 1.5-2.2 1.6-4.5.3-4.8-2.5-14.5-18.3-22.2-35.9-2.5-5.7-7.2-16.8-8.3-19.8-.5-1.2-1.3-3.2-1.8-4.5-4.7-11.1-13.7-38.1-18.1-54.7-4.7-17.1-6.7-20-13.9-20-5.8 0-6.6 4.5-3.6 21 .9 5.2 1.8 10.6 2 12 .2 1.4.9 4.7 1.5 7.5.6 2.7 1.3 5.8 1.5 6.7 1.7 8.3 10.6 36.8 16.2 51.8 8.3 22.5 24 48.6 36.1 60.3 9.3 8.9 17 12 21.4 8.4 5.6-4.5 11.7-20.2 17.2-43.9.6-2.5 1.1-2.2 12.8 9.6 32.6 32.4 66.7 49.8 98.3 49.9 13.6.1 22.6-2.7 28.8-9.1 13.2-13.6 14-34.2 3.3-77.2-4.9-19.7-17-54.3-34.1-98-5.2-13.3-13.7-35.9-23-61.5-9.1-24.8-18.7-45-24.8-52-2.2-2.6-6.4-3.7-10.2-2.8z"/><path d="M192.7 152.6c-.1.1-5.6.4-12.2.8-6.6.3-15.1 1.1-19 1.6-3.8.6-8.8 1.3-11 1.6-24 3.3-52.7 12.5-73.2 23.5-30.6 16.4-50.8 34.6-59.4 53.5-3.1 6.7-3.2 7.4-3.3 20.9 0 13.1.2 14.4 2.7 19.8 5.4 11.9 21.6 24.9 34.3 27.8 8.5 1.9 13-.4 8.6-4.4-.9-.9-6.5-4-12.3-7-11.4-5.8-15.5-9.4-19-16.7-1.8-3.8-2-5.6-1.5-11.1 2.6-28.2 32.3-55.4 77.4-71 6.3-2.1 12.4-4.1 13.6-4.4 1.1-.2 5.5-1.3 9.6-2.4 7.6-2.1 29.2-6.5 36.5-7.5 2.2-.3 6.3-.8 9-1.1 2.8-.4 6.1-.8 7.5-1 17.5-2.5 66.9-2.5 82.2 0 1.3.2 3.9.6 5.8.9 31.4 4.8 52 16.1 59.8 32.8 3 6.4 5.1 19.1 3.3 20.2-1 .7-4.9 1.3-15.6 2.6-8.7 1-12.2 1.5-19.5 2.5-1.9.3-5.7.7-8.5 1-2.7.3-8.1 1.2-12 1.9-6.5 1.4-9.5 1.9-18.5 3.2-1.9.3-4.2.7-5 .9-.8.3-4.2.7-7.5 1-3.3.3-6.7.8-7.5 1-.8.2-4.2.7-7.5 1-3.3.4-6.7.8-7.5 1.1-.9.2-4.7.6-8.5.9-22.6 1.5-26.7 2.3-32.6 6.5-3.4 2.5-3.8 5.7-1.2 10 2.1 3.5 3.3 3.9 13 3.5 10.3-.5 16.3-1.3 27.9-4 3.4-.8 7.3-1.6 8.5-1.9 1.3-.3 6.7-1.4 11.9-2.6 14.3-3.3 24.7-4.8 32.5-4.8 11.5 0 11.7.1 16.9 8.8 2.5 4.3 5.3 9.3 6 11.2l1.5 3.4-7.7 5.1c-25.1 16.4-51.8 27.5-90.1 37.4-8.4 2.2-17 4.2-19 4.5-2 .3-4.2.7-4.9.9-7 2.4-52.2 7.5-52.2 5.9 0-3.2 35.1-57.8 45.8-71.4 9.4-11.8 11-13.6 18.5-21.1 13.5-13.5 28.4-21.5 35.3-18.9 3.7 1.4 4.4 1.2 4.4-1 0-6.9-5.7-12.3-17.3-16.5-15.5-5.7-31.4.8-50.4 20.6-16 16.7-21.6 26.2-21.9 37.4-.2 8.9-2.3 14.2-14.9 37-1.9 3.3-5.1 9.2-7.2 13-2.1 3.9-5.6 10.4-7.8 14.4l-4 7.3-7.5-.5c-9-.7-10.8 0-9.5 3.9 1.1 3 3.6 4.1 9.7 4.3l3.7.1-9.2 18.2C77.1 388 67.5 411 63.5 427.4c-2.2 8.8-2.5 17-.8 18.6.4.5 4.5 1.6 8.9 2.5 6.5 1.3 9 1.4 12.3.5 6.1-1.6 15.1-10.6 23.7-23.6 4-6.1 8-11.7 8.9-12.4 1.8-1.5 4.5-6.3 4.5-8 0-.5-.9-1-2-1-2.1 0-7.3 4.8-16.3 15.3-7.9 9.1-14.1 12-18.4 8.5-1.8-1.4-1.6-7.5.3-13.4 5.4-16.7 33.5-74.5 36.4-74.9.8-.1 8.3-.5 16.5-.9 8.3-.4 16.4-.9 18-1.1 1.7-.2 5.7-.6 9-.9 3.3-.4 8.7-1 12-1.5 3.3-.5 6.1-.8 6.2-.7.1.1.3 5 .4 11 .2 11 3.3 29.2 6.2 35.8.8 1.8 2.3 5.3 3.3 7.8 2.2 5.1 10.7 19 14.4 23.4 13.8 16.5 29.6 31.8 35.8 35 4.6 2.3 6.6 2.7 14 2.7 18.1.1 32.5-7.8 43.4-23.7 4.2-6.3 5.7-8.5 6.5-10.4.3-.8 1.4-3.4 2.4-5.6 2.7-6.2 7.3-20.7 8.4-26.9 4.4-23.6 5-29.6 5-52.5 0-21.5-.8-32.3-3.5-46.7-.7-4.1-.6-4.4 3.6-8.3 2.3-2.1 6.1-6.3 8.3-9.2 3.9-5.3 10.1-17.2 10.1-19.6 0-.6.3-1.2.8-1.2.4 0 3.6-.4 7.2-1 3.6-.5 9-1.1 12-1.5 3-.3 6.6-.8 8-1.1 1.4-.2 4.5-.6 6.9-.9 5.1-.5 11.6-1.4 15.1-2 1.4-.2 5.2-.7 8.5-1.1 3.3-.3 6.7-.7 7.5-.9.8-.1 3.8-.6 6.5-.9 2.8-.4 6.6-.9 8.5-1.2 1.9-.3 9.1-.7 15.8-1 9.7-.3 12.7 0 13.8 1 3.4 3.5 14.5-2.8 18.4-10.3 1.7-3.3.5-8.3-2.8-11.3-5.5-5.2-6.1-5.2-18.9-.9-6.5 2.2-13.6 4.2-15.8 4.5-2.2.3-6.5.8-9.5 1.2-3 .4-6.6.8-8 1-4.6.5-12.5 1.6-15 1.9-1.4.3-5 .7-8 1-3 .3-7.2.8-9.2 1.1-5.3.7-9.6 1.3-15.3 1.9-2.7.3-6.1.8-7.5 1-1.4.2-4.8.7-7.7.9-2.8.3-5.7.7-6.5.8-.8.2-1.5-1.5-1.9-5.2-1-7.5-1.4-8.9-4-15.1-7.8-18.3-24.7-33.3-47-41.9-5.2-2-22.3-6.5-28.4-7.6-1.6-.2-5.5-.9-8.5-1.4-16.4-2.9-31.9-4.2-50.8-4.4-6.8-.1-12.4-.1-12.5 0zm132.2 97.6c-.7 1.3-3.3 4.7-5.7 7.6l-4.6 5.4-2.9-5.7c-1.5-3.1-2.6-6-2.3-6.3.6-.6 11.8-2.9 14.9-3.1 1.5-.1 1.6.2.6 2.1zm-18 50.6c11.6 49.4 1.5 99.7-25.2 124.9-10.9 10.4-24.1 14.2-33.4 9.8-12.1-5.7-39-38.9-45.9-56.5-.9-2.5-2-5-2.4-5.5-.7-1-4.8-13.4-5.6-17-2.1-8.9-4.5-22.7-4.1-23.1.2-.2 4.4-1.1 9.3-2 15.3-2.7 52.1-12.7 59.9-16.3 1.1-.5 6.1-2.6 11-4.7 10.9-4.5 20.2-9.4 27.5-14.5 3-2.1 5.8-3.8 6.2-3.8.3-.1 1.6 3.9 2.7 8.7z"/></svg>